<svg xmlns="http://www.w3.org/2000/svg" viewBox="0 0 55 60"><path transform="translate(-77 -68)" fill-rule="evenodd" fill="#fff" d="m95.476681 91.428122v7.8678c3.9552587.75144 6.725172 3.43728 7.808103 7.59624 1.81043 6.953046-1.455334 15.819877-7.6125825 20.798382l-.3102618.245658-.0825.06417h-9.7776725l-.0825-.06417c-6.3572413-4.92807-9.7625-13.97511-7.9218965-21.04404 1.0544328-4.049514 3.7082282-6.70242 7.4974426-7.5329054l.3097126-.0633346v-7.8678zm22.100792 14.178858c2.796437 0 5.015259.2793 6.384319.513.764927.130541 1.332242.783668 1.396338 1.582378l.006047.151372v3.12455c3.369425.931 6.429677 3.8817 5.895568 8.54525-.219383 1.9171-1.145975 3.8114-2.608528 5.3333-.951584.99085-2.103113 1.83065-3.623057 2.6429-.535382.28595-1.13384.454798-1.744523.492542l-.262321.008108h-10.870099c-.700729 0-1.394979-.17385-2.00777-.50065-1.519943-.81225-2.671472-1.65205-3.623057-2.6429-1.462553-1.5219-2.389145-3.4162-2.608527-5.3333-.523652-4.571764 2.407261-7.497329 5.697192-8.488129l.215038-.061871v-3.09795c0-.874.598906-1.60455 1.4246-1.73755 1.50791-.24225 3.830407-.53105 6.32878-.53105zm-22.2857058-5.742828h-9.8023275c-3.7504311.68727-6.3781035 3.2271-7.4060345 7.17495-1.7483836 6.711516 1.3932208 15.271007 7.3248754 20.12437l.3040039.24356h9.3566379c6.1287066-4.80531 9.4078446-13.54266 7.6298276-20.36793-1.027931-3.94785-3.6565517-6.48768-7.4069828-7.17495zm29.6429008 11.627128h-14.697728c-3.226873.77615-6.24547 3.534-5.738205 7.961.203646 1.78505 1.070996 3.553 2.441907 4.9799.907153.9443 2.011473 1.748 3.475877 2.52985.462486.247712.979543.39287 1.507762.425288l.226936.006962h10.870099c.606311 0 1.206143-.14915 1.734698-.43225 1.463478-.7809 2.567798-1.58555 3.475877-2.52985 1.369986-1.4269 2.237335-3.1958 2.441907-4.9799.507265-4.427-2.511332-7.18485-5.73913-7.961z"></path></svg>
