<svg xmlns="http://www.w3.org/2000/svg" viewBox="0 0 900 600">
  <!-- Green stripe -->
  <rect width="900" height="200" fill="#007a3d"/>
  <!-- White stripe -->
  <rect y="200" width="900" height="200" fill="#ffffff"/>
  <!-- Black stripe -->
  <rect y="400" width="900" height="200" fill="#000000"/>
  <!-- 3 red stars in white stripe centered at y=300 -->
  <polygon fill="#ce1126" points="225,230 240.64,278.49 291.57,278.37 256.29,308.21 266.15,356.63 225,326.6 183.85,356.63 193.71,308.21 158.43,278.37 209.36,278.49"/>
  <polygon fill="#ce1126" points="450,230 465.64,278.49 516.57,278.37 481.29,308.21 491.15,356.63 450,326.6 408.85,356.63 418.71,308.21 383.43,278.37 434.36,278.49"/>
  <polygon fill="#ce1126" points="675,230 690.64,278.49 741.57,278.37 706.29,308.21 716.15,356.63 675,326.6 633.85,356.63 643.71,308.21 608.43,278.37 659.36,278.49"/>
</svg>
